<svg width="24" height="20" viewBox="0 0 24 20" fill="none" xmlns="http://www.w3.org/2000/svg">
<path d="M23 1.00005C22.0424 1.67552 20.9821 2.19216 19.86 2.53005C19.2577 1.83756 18.4573 1.34674 17.567 1.12397C16.6767 0.901206 15.7395 0.957242 14.8821 1.2845C14.0247 1.61176 13.2884 2.19445 12.773 2.95376C12.2575 3.71308 11.9877 4.61238 12 5.53005V6.53005C10.2426 6.57561 8.50127 6.18586 6.93101 5.39549C5.36074 4.60513 4.01032 3.43868 3 2.00005C3 2.00005 -1 11 8 15C5.94053 16.398 3.48716 17.099 1 17C10 22 21 17 21 5.50005C20.9991 5.2215 20.9723 4.94364 20.92 4.67005C21.9406 3.66354 22.6608 2.39276 23 1.00005Z" stroke="#121212" stroke-width="1.5" stroke-linecap="round" stroke-linejoin="round"/>
</svg>
